<mxfile host="app.diagrams.net" agent="Mozilla/5.0 (Windows NT 10.0; Win64; x64) AppleWebKit/537.36 (KHTML, like Gecko) Chrome/128.0.0.0 Safari/537.36" version="24.7.12">
  <diagram name="페이지-1" id="Cw6x7ALiGV6nXiemzogF">
    <mxGraphModel dx="2049" dy="1066" grid="1" gridSize="10" guides="1" tooltips="1" connect="1" arrows="1" fold="1" page="1" pageScale="1" pageWidth="1390" pageHeight="980" math="0" shadow="0">
      <root>
        <mxCell id="0" />
        <mxCell id="1" parent="0" />
        <mxCell id="skHqQRAFyOAMKYW65GrV-44" style="edgeStyle=orthogonalEdgeStyle;rounded=0;orthogonalLoop=1;jettySize=auto;html=1;entryX=0.685;entryY=-0.002;entryDx=0;entryDy=0;entryPerimeter=0;strokeColor=#000066;" edge="1" parent="1" source="skHqQRAFyOAMKYW65GrV-3" target="skHqQRAFyOAMKYW65GrV-6">
          <mxGeometry relative="1" as="geometry">
            <mxPoint x="410" y="639.9999999999998" as="targetPoint" />
            <Array as="points">
              <mxPoint x="480" y="600" />
              <mxPoint x="400" y="600" />
            </Array>
          </mxGeometry>
        </mxCell>
        <mxCell id="skHqQRAFyOAMKYW65GrV-45" style="edgeStyle=orthogonalEdgeStyle;rounded=0;orthogonalLoop=1;jettySize=auto;html=1;entryX=0.387;entryY=0.007;entryDx=0;entryDy=0;entryPerimeter=0;strokeColor=#000066;" edge="1" parent="1" source="skHqQRAFyOAMKYW65GrV-3" target="skHqQRAFyOAMKYW65GrV-23">
          <mxGeometry relative="1" as="geometry">
            <mxPoint x="560" y="649.9999999999998" as="targetPoint" />
            <Array as="points">
              <mxPoint x="480" y="600" />
              <mxPoint x="590" y="600" />
            </Array>
          </mxGeometry>
        </mxCell>
        <mxCell id="skHqQRAFyOAMKYW65GrV-47" style="edgeStyle=orthogonalEdgeStyle;rounded=0;orthogonalLoop=1;jettySize=auto;html=1;strokeColor=#000066;" edge="1" parent="1">
          <mxGeometry relative="1" as="geometry">
            <mxPoint x="1040" y="481.75" as="targetPoint" />
            <mxPoint x="560" y="230" as="sourcePoint" />
            <Array as="points">
              <mxPoint x="640" y="230" />
              <mxPoint x="640" y="482" />
            </Array>
          </mxGeometry>
        </mxCell>
        <mxCell id="skHqQRAFyOAMKYW65GrV-3" value="&lt;font color=&quot;#3399ff&quot; style=&quot;font-size: 20px;&quot;&gt;Membertbl&lt;/font&gt;" style="swimlane;whiteSpace=wrap;html=1;startSize=40;" vertex="1" parent="1">
          <mxGeometry x="400" y="43" width="160" height="370" as="geometry" />
        </mxCell>
        <mxCell id="skHqQRAFyOAMKYW65GrV-4" value="&lt;font color=&quot;#3399ff&quot; style=&quot;font-size: 18px;&quot;&gt;userid&lt;/font&gt;&lt;div style=&quot;font-size: 18px;&quot;&gt;account&lt;/div&gt;&lt;div style=&quot;font-size: 18px;&quot;&gt;pwd&lt;/div&gt;&lt;div style=&quot;font-size: 18px;&quot;&gt;name&lt;/div&gt;&lt;div style=&quot;font-size: 18px;&quot;&gt;&lt;font color=&quot;#3399ff&quot;&gt;nickname&lt;/font&gt;&lt;/div&gt;&lt;div style=&quot;font-size: 18px;&quot;&gt;gender&lt;/div&gt;&lt;div style=&quot;font-size: 18px;&quot;&gt;zipcode&lt;/div&gt;&lt;div style=&quot;font-size: 18px;&quot;&gt;address&lt;/div&gt;&lt;div style=&quot;font-size: 18px;&quot;&gt;phone&lt;/div&gt;&lt;div style=&quot;font-size: 18px;&quot;&gt;email&lt;/div&gt;&lt;div style=&quot;font-size: 18px;&quot;&gt;signup_date&lt;/div&gt;&lt;div style=&quot;font-size: 18px;&quot;&gt;status&lt;/div&gt;&lt;div style=&quot;font-size: 18px;&quot;&gt;favorite&lt;/div&gt;&lt;div style=&quot;font-size: 18px;&quot;&gt;profile_photo&lt;/div&gt;" style="text;html=1;align=center;verticalAlign=middle;resizable=0;points=[];autosize=1;strokeColor=none;fillColor=none;spacingBottom=0;" vertex="1" parent="skHqQRAFyOAMKYW65GrV-3">
          <mxGeometry x="15" y="50" width="130" height="310" as="geometry" />
        </mxCell>
        <mxCell id="skHqQRAFyOAMKYW65GrV-33" style="edgeStyle=orthogonalEdgeStyle;rounded=0;orthogonalLoop=1;jettySize=auto;html=1;strokeColor=#003300;" edge="1" parent="1">
          <mxGeometry relative="1" as="geometry">
            <mxPoint x="880" y="210" as="sourcePoint" />
            <mxPoint x="1040" y="210" as="targetPoint" />
            <Array as="points">
              <mxPoint x="1000" y="210" />
            </Array>
          </mxGeometry>
        </mxCell>
        <mxCell id="skHqQRAFyOAMKYW65GrV-34" style="edgeStyle=orthogonalEdgeStyle;rounded=0;orthogonalLoop=1;jettySize=auto;html=1;entryX=0.5;entryY=0;entryDx=0;entryDy=0;strokeColor=#003300;" edge="1" parent="1" source="skHqQRAFyOAMKYW65GrV-5" target="skHqQRAFyOAMKYW65GrV-25">
          <mxGeometry relative="1" as="geometry">
            <Array as="points">
              <mxPoint x="800" y="680" />
              <mxPoint x="870" y="680" />
            </Array>
          </mxGeometry>
        </mxCell>
        <mxCell id="skHqQRAFyOAMKYW65GrV-36" style="edgeStyle=orthogonalEdgeStyle;rounded=0;orthogonalLoop=1;jettySize=auto;html=1;strokeColor=#003300;" edge="1" parent="1">
          <mxGeometry relative="1" as="geometry">
            <mxPoint x="230" y="561" as="targetPoint" />
            <mxPoint x="720" y="150" as="sourcePoint" />
            <Array as="points">
              <mxPoint x="610" y="150" />
              <mxPoint x="610" y="561" />
            </Array>
          </mxGeometry>
        </mxCell>
        <mxCell id="skHqQRAFyOAMKYW65GrV-37" style="edgeStyle=orthogonalEdgeStyle;rounded=0;orthogonalLoop=1;jettySize=auto;html=1;entryX=0.553;entryY=0.007;entryDx=0;entryDy=0;entryPerimeter=0;strokeColor=#003300;" edge="1" parent="1" source="skHqQRAFyOAMKYW65GrV-5" target="skHqQRAFyOAMKYW65GrV-23">
          <mxGeometry relative="1" as="geometry">
            <mxPoint x="620" y="760" as="targetPoint" />
            <Array as="points">
              <mxPoint x="800" y="680" />
              <mxPoint x="620" y="680" />
            </Array>
          </mxGeometry>
        </mxCell>
        <mxCell id="skHqQRAFyOAMKYW65GrV-38" style="edgeStyle=orthogonalEdgeStyle;rounded=0;orthogonalLoop=1;jettySize=auto;html=1;entryX=0.435;entryY=-0.002;entryDx=0;entryDy=0;entryPerimeter=0;strokeColor=#003300;" edge="1" parent="1" source="skHqQRAFyOAMKYW65GrV-5" target="skHqQRAFyOAMKYW65GrV-6">
          <mxGeometry relative="1" as="geometry">
            <mxPoint x="360" y="760" as="targetPoint" />
            <Array as="points">
              <mxPoint x="800" y="680" />
              <mxPoint x="360" y="680" />
            </Array>
          </mxGeometry>
        </mxCell>
        <mxCell id="skHqQRAFyOAMKYW65GrV-5" value="&lt;font color=&quot;#67ab9f&quot; style=&quot;font-size: 20px;&quot;&gt;Booktbl&lt;/font&gt;" style="swimlane;whiteSpace=wrap;html=1;startSize=40;" vertex="1" parent="1">
          <mxGeometry x="720" y="41.75" width="160" height="353.5" as="geometry" />
        </mxCell>
        <mxCell id="skHqQRAFyOAMKYW65GrV-9" value="&lt;font color=&quot;#67ab9f&quot; style=&quot;font-size: 18px;&quot;&gt;bookid&lt;/font&gt;&lt;div style=&quot;font-size: 18px;&quot;&gt;&lt;font style=&quot;font-size: 18px;&quot;&gt;author&lt;/font&gt;&lt;/div&gt;&lt;div style=&quot;font-size: 18px;&quot;&gt;&lt;font style=&quot;font-size: 18px;&quot;&gt;category&lt;/font&gt;&lt;/div&gt;&lt;div style=&quot;font-size: 18px;&quot;&gt;&lt;font style=&quot;font-size: 18px;&quot;&gt;genre&lt;/font&gt;&lt;/div&gt;&lt;div style=&quot;font-size: 18px;&quot;&gt;&lt;font style=&quot;font-size: 18px;&quot;&gt;title&lt;/font&gt;&lt;/div&gt;&lt;div style=&quot;font-size: 18px;&quot;&gt;&lt;font style=&quot;font-size: 18px;&quot;&gt;review&lt;/font&gt;&lt;/div&gt;&lt;div style=&quot;font-size: 18px;&quot;&gt;&lt;font style=&quot;font-size: 18px;&quot;&gt;score&lt;/font&gt;&lt;/div&gt;&lt;div style=&quot;font-size: 18px;&quot;&gt;&lt;font style=&quot;font-size: 18px;&quot;&gt;contents&lt;/font&gt;&lt;/div&gt;&lt;div style=&quot;font-size: 18px;&quot;&gt;&lt;font style=&quot;font-size: 18px;&quot;&gt;photo&lt;/font&gt;&lt;/div&gt;&lt;div style=&quot;font-size: 18px;&quot;&gt;&lt;font style=&quot;font-size: 18px;&quot;&gt;publish_date&lt;/font&gt;&lt;/div&gt;&lt;div style=&quot;font-size: 18px;&quot;&gt;&lt;font style=&quot;font-size: 18px;&quot;&gt;isbn&lt;/font&gt;&lt;/div&gt;&lt;div style=&quot;font-size: 18px;&quot;&gt;&lt;font style=&quot;font-size: 18px;&quot;&gt;stock_quantity&lt;/font&gt;&lt;/div&gt;&lt;div style=&quot;font-size: 18px;&quot;&gt;&lt;font style=&quot;font-size: 18px;&quot;&gt;price&lt;/font&gt;&lt;/div&gt;" style="text;html=1;align=center;verticalAlign=middle;resizable=0;points=[];autosize=1;strokeColor=none;fillColor=none;" vertex="1" parent="skHqQRAFyOAMKYW65GrV-5">
          <mxGeometry x="10" y="50" width="140" height="290" as="geometry" />
        </mxCell>
        <mxCell id="skHqQRAFyOAMKYW65GrV-7" value="&lt;font style=&quot;font-size: 20px;&quot;&gt;Boardtbl&lt;/font&gt;" style="swimlane;whiteSpace=wrap;html=1;startSize=40;" vertex="1" parent="1">
          <mxGeometry x="70" y="240.25" width="160" height="476" as="geometry" />
        </mxCell>
        <mxCell id="skHqQRAFyOAMKYW65GrV-14" value="&lt;font style=&quot;font-size: 18px;&quot;&gt;boardid&lt;/font&gt;&lt;div style=&quot;font-size: 18px;&quot;&gt;&lt;font style=&quot;font-size: 18px;&quot;&gt;title&lt;/font&gt;&lt;/div&gt;&lt;div style=&quot;font-size: 18px;&quot;&gt;&lt;font color=&quot;#3399ff&quot; style=&quot;font-size: 18px;&quot;&gt;&lt;b style=&quot;&quot;&gt;&lt;i style=&quot;&quot;&gt;nickname&lt;/i&gt;&lt;/b&gt;&lt;/font&gt;&lt;/div&gt;&lt;div style=&quot;font-size: 18px;&quot;&gt;&lt;font style=&quot;font-size: 18px;&quot;&gt;genre&lt;/font&gt;&lt;/div&gt;&lt;div style=&quot;font-size: 18px;&quot;&gt;&lt;font style=&quot;font-size: 18px;&quot;&gt;content&lt;/font&gt;&lt;/div&gt;&lt;div style=&quot;font-size: 18px;&quot;&gt;&lt;font style=&quot;font-size: 18px;&quot;&gt;ref&lt;/font&gt;&lt;/div&gt;&lt;div style=&quot;font-size: 18px;&quot;&gt;&lt;font style=&quot;font-size: 18px;&quot;&gt;pos&lt;/font&gt;&lt;/div&gt;&lt;div style=&quot;font-size: 18px;&quot;&gt;&lt;font style=&quot;font-size: 18px;&quot;&gt;depth&lt;/font&gt;&lt;/div&gt;&lt;div style=&quot;font-size: 18px;&quot;&gt;&lt;font style=&quot;font-size: 18px;&quot;&gt;count&lt;/font&gt;&lt;/div&gt;&lt;div style=&quot;font-size: 18px;&quot;&gt;&lt;font style=&quot;font-size: 18px;&quot;&gt;regdate&lt;/font&gt;&lt;/div&gt;&lt;div style=&quot;font-size: 18px;&quot;&gt;&lt;font style=&quot;font-size: 18px;&quot;&gt;photo&lt;/font&gt;&lt;/div&gt;&lt;div style=&quot;font-size: 18px;&quot;&gt;&lt;font color=&quot;#3399ff&quot; style=&quot;font-size: 18px;&quot;&gt;&lt;b&gt;&lt;i&gt;userid&lt;/i&gt;&lt;/b&gt;&lt;/font&gt;&lt;/div&gt;&lt;div style=&quot;font-size: 18px;&quot;&gt;&lt;font color=&quot;#67ab9f&quot; style=&quot;font-size: 18px;&quot;&gt;&lt;b&gt;&lt;i&gt;bookid&lt;/i&gt;&lt;/b&gt;&lt;/font&gt;&lt;/div&gt;&lt;div style=&quot;font-size: 18px;&quot;&gt;&lt;font style=&quot;font-size: 18px;&quot;&gt;ip&lt;/font&gt;&lt;/div&gt;&lt;div style=&quot;font-size: 18px;&quot;&gt;&lt;font style=&quot;font-size: 18px;&quot;&gt;update_date&lt;/font&gt;&lt;/div&gt;&lt;div style=&quot;font-size: 18px;&quot;&gt;&lt;font style=&quot;font-size: 18px;&quot;&gt;comment_count&lt;/font&gt;&lt;/div&gt;&lt;div style=&quot;font-size: 18px;&quot;&gt;&lt;font style=&quot;font-size: 18px;&quot;&gt;status&lt;/font&gt;&lt;/div&gt;&lt;div style=&quot;font-size: 18px;&quot;&gt;&lt;br&gt;&lt;/div&gt;&lt;div&gt;&lt;br&gt;&lt;/div&gt;&lt;div&gt;&lt;br&gt;&lt;/div&gt;" style="text;html=1;align=center;verticalAlign=middle;resizable=0;points=[];autosize=1;strokeColor=none;fillColor=none;" vertex="1" parent="skHqQRAFyOAMKYW65GrV-7">
          <mxGeometry x="5" y="46" width="150" height="430" as="geometry" />
        </mxCell>
        <mxCell id="skHqQRAFyOAMKYW65GrV-6" value="&lt;font style=&quot;font-size: 20px;&quot;&gt;Reviewtbl&lt;/font&gt;" style="swimlane;whiteSpace=wrap;html=1;startSize=40;" vertex="1" parent="1">
          <mxGeometry x="290" y="770" width="160" height="170" as="geometry" />
        </mxCell>
        <mxCell id="skHqQRAFyOAMKYW65GrV-12" value="&lt;font color=&quot;#67ab9f&quot; style=&quot;font-size: 18px;&quot;&gt;&lt;b style=&quot;&quot;&gt;&lt;i style=&quot;&quot;&gt;bookid&lt;/i&gt;&lt;/b&gt;&lt;/font&gt;&lt;div style=&quot;font-size: 18px;&quot;&gt;&lt;font style=&quot;font-size: 18px;&quot;&gt;score&lt;/font&gt;&lt;/div&gt;&lt;div style=&quot;font-size: 18px;&quot;&gt;&lt;font color=&quot;#3399ff&quot; style=&quot;font-size: 18px;&quot;&gt;&lt;b&gt;&lt;i&gt;nickname&lt;/i&gt;&lt;/b&gt;&lt;/font&gt;&lt;/div&gt;&lt;div style=&quot;font-size: 18px;&quot;&gt;&lt;font style=&quot;font-size: 18px;&quot;&gt;content&lt;/font&gt;&lt;/div&gt;" style="text;html=1;align=center;verticalAlign=middle;resizable=0;points=[];autosize=1;strokeColor=none;fillColor=none;" vertex="1" parent="skHqQRAFyOAMKYW65GrV-6">
          <mxGeometry x="25" y="56.5" width="110" height="100" as="geometry" />
        </mxCell>
        <mxCell id="skHqQRAFyOAMKYW65GrV-16" value="&lt;span style=&quot;font-size: 20px;&quot;&gt;Purchasetbl&lt;/span&gt;" style="swimlane;whiteSpace=wrap;html=1;startSize=40;" vertex="1" parent="1">
          <mxGeometry x="1040" y="160" width="160" height="184" as="geometry" />
        </mxCell>
        <mxCell id="skHqQRAFyOAMKYW65GrV-17" value="&lt;div&gt;&lt;b style=&quot;font-size: 18px; color: rgb(103, 171, 159); background-color: initial;&quot;&gt;&lt;i&gt;bookid&lt;/i&gt;&lt;/b&gt;&lt;br&gt;&lt;/div&gt;&lt;div&gt;&lt;b style=&quot;color: rgb(51, 153, 255); font-size: 18px;&quot;&gt;&lt;i&gt;userid&lt;/i&gt;&lt;/b&gt;&lt;b style=&quot;font-size: 18px; color: rgb(103, 171, 159); background-color: initial;&quot;&gt;&lt;i&gt;&lt;br&gt;&lt;/i&gt;&lt;/b&gt;&lt;/div&gt;&lt;div&gt;&lt;span style=&quot;font-size: 18px;&quot;&gt;status&lt;/span&gt;&lt;/div&gt;&lt;div&gt;&lt;span style=&quot;font-size: 18px;&quot;&gt;purchase_date&lt;/span&gt;&lt;/div&gt;&lt;div&gt;&lt;span style=&quot;font-size: 18px;&quot;&gt;quantity&lt;br&gt;&lt;/span&gt;&lt;div style=&quot;font-size: 18px;&quot;&gt;&lt;br&gt;&lt;/div&gt;&lt;/div&gt;" style="text;html=1;align=center;verticalAlign=middle;resizable=0;points=[];autosize=1;strokeColor=none;fillColor=none;" vertex="1" parent="skHqQRAFyOAMKYW65GrV-16">
          <mxGeometry x="10" y="44" width="140" height="140" as="geometry" />
        </mxCell>
        <mxCell id="skHqQRAFyOAMKYW65GrV-18" value="&lt;span style=&quot;font-size: 20px;&quot;&gt;Wishtbl&lt;/span&gt;" style="swimlane;whiteSpace=wrap;html=1;startSize=40;" vertex="1" parent="1">
          <mxGeometry x="1040" y="395.25" width="160" height="166" as="geometry" />
        </mxCell>
        <mxCell id="skHqQRAFyOAMKYW65GrV-19" value="&lt;div&gt;&lt;b style=&quot;font-size: 18px; color: rgb(103, 171, 159); background-color: initial;&quot;&gt;&lt;i&gt;bookid&lt;/i&gt;&lt;/b&gt;&lt;br&gt;&lt;/div&gt;&lt;div&gt;&lt;b style=&quot;color: rgb(51, 153, 255); font-size: 18px;&quot;&gt;&lt;i&gt;userid&lt;/i&gt;&lt;/b&gt;&lt;b style=&quot;font-size: 18px; color: rgb(103, 171, 159); background-color: initial;&quot;&gt;&lt;i&gt;&lt;br&gt;&lt;/i&gt;&lt;/b&gt;&lt;/div&gt;&lt;div&gt;&lt;span style=&quot;font-size: 18px;&quot;&gt;status&lt;/span&gt;&lt;/div&gt;&lt;div&gt;&lt;span style=&quot;font-size: 18px;&quot;&gt;added_date&lt;/span&gt;&lt;/div&gt;&lt;div&gt;&lt;div style=&quot;font-size: 18px;&quot;&gt;&lt;br&gt;&lt;/div&gt;&lt;/div&gt;" style="text;html=1;align=center;verticalAlign=middle;resizable=0;points=[];autosize=1;strokeColor=none;fillColor=none;" vertex="1" parent="skHqQRAFyOAMKYW65GrV-18">
          <mxGeometry x="20" y="46" width="120" height="120" as="geometry" />
        </mxCell>
        <mxCell id="skHqQRAFyOAMKYW65GrV-21" value="&lt;span style=&quot;font-size: 20px;&quot;&gt;Carttbl&lt;/span&gt;" style="swimlane;whiteSpace=wrap;html=1;startSize=40;" vertex="1" parent="1">
          <mxGeometry x="1040" y="590" width="160" height="171" as="geometry" />
        </mxCell>
        <mxCell id="skHqQRAFyOAMKYW65GrV-22" value="&lt;div&gt;&lt;b style=&quot;font-size: 18px; color: rgb(103, 171, 159); background-color: initial;&quot;&gt;&lt;i&gt;bookid&lt;/i&gt;&lt;/b&gt;&lt;br&gt;&lt;/div&gt;&lt;div&gt;&lt;div&gt;&lt;font style=&quot;font-size: 18px;&quot; color=&quot;#3399ff&quot;&gt;&lt;b&gt;&lt;i&gt;userid&lt;/i&gt;&lt;/b&gt;&lt;/font&gt;&lt;/div&gt;&lt;font style=&quot;font-size: 18px;&quot; color=&quot;#67ab9f&quot;&gt;&lt;/font&gt;&lt;/div&gt;&lt;div&gt;&lt;span style=&quot;font-size: 18px;&quot;&gt;status&lt;/span&gt;&lt;/div&gt;&lt;div&gt;&lt;span style=&quot;font-size: 18px;&quot;&gt;added_date&lt;/span&gt;&lt;/div&gt;&lt;div&gt;&lt;div style=&quot;font-size: 18px;&quot;&gt;quantity&lt;/div&gt;&lt;/div&gt;" style="text;html=1;align=center;verticalAlign=middle;resizable=0;points=[];autosize=1;strokeColor=none;fillColor=none;" vertex="1" parent="skHqQRAFyOAMKYW65GrV-21">
          <mxGeometry x="20" y="46" width="120" height="120" as="geometry" />
        </mxCell>
        <mxCell id="skHqQRAFyOAMKYW65GrV-23" value="&lt;span style=&quot;font-size: 20px;&quot;&gt;Canceltbl&lt;/span&gt;" style="swimlane;whiteSpace=wrap;html=1;startSize=40;" vertex="1" parent="1">
          <mxGeometry x="520" y="770" width="180" height="171" as="geometry" />
        </mxCell>
        <mxCell id="skHqQRAFyOAMKYW65GrV-24" value="&lt;div&gt;&lt;font color=&quot;#3399ff&quot; style=&quot;font-size: 18px;&quot;&gt;&lt;b&gt;&lt;i&gt;userid&lt;/i&gt;&lt;/b&gt;&lt;/font&gt;&lt;/div&gt;&lt;font color=&quot;#67ab9f&quot; style=&quot;font-size: 18px;&quot;&gt;&lt;b&gt;&lt;i&gt;bookid&lt;/i&gt;&lt;/b&gt;&lt;/font&gt;&lt;div&gt;&lt;span style=&quot;font-size: 18px;&quot;&gt;status&lt;/span&gt;&lt;/div&gt;&lt;div&gt;&lt;span style=&quot;font-size: 18px;&quot;&gt;cancellation_date&lt;/span&gt;&lt;/div&gt;&lt;div&gt;&lt;div style=&quot;font-size: 18px;&quot;&gt;cancellation_reason&lt;/div&gt;&lt;/div&gt;" style="text;html=1;align=center;verticalAlign=middle;resizable=0;points=[];autosize=1;strokeColor=none;fillColor=none;" vertex="1" parent="skHqQRAFyOAMKYW65GrV-23">
          <mxGeometry y="46" width="180" height="120" as="geometry" />
        </mxCell>
        <mxCell id="skHqQRAFyOAMKYW65GrV-25" value="&lt;span style=&quot;font-size: 20px;&quot;&gt;Refundtbl&lt;/span&gt;" style="swimlane;whiteSpace=wrap;html=1;startSize=40;" vertex="1" parent="1">
          <mxGeometry x="790" y="770" width="160" height="171" as="geometry" />
        </mxCell>
        <mxCell id="skHqQRAFyOAMKYW65GrV-26" value="&lt;div&gt;&lt;font color=&quot;#3399ff&quot; style=&quot;font-size: 18px;&quot;&gt;&lt;i style=&quot;&quot;&gt;&lt;b&gt;userid&lt;/b&gt;&lt;/i&gt;&lt;/font&gt;&lt;/div&gt;&lt;font color=&quot;#67ab9f&quot; style=&quot;font-size: 18px;&quot;&gt;&lt;b&gt;&lt;i&gt;bookid&lt;/i&gt;&lt;/b&gt;&lt;/font&gt;&lt;div&gt;&lt;span style=&quot;font-size: 18px;&quot;&gt;status&lt;/span&gt;&lt;/div&gt;&lt;div&gt;&lt;span style=&quot;font-size: 18px;&quot;&gt;refund_date&lt;/span&gt;&lt;/div&gt;&lt;div&gt;&lt;div style=&quot;font-size: 18px;&quot;&gt;refund_reason&lt;/div&gt;&lt;/div&gt;" style="text;html=1;align=center;verticalAlign=middle;resizable=0;points=[];autosize=1;strokeColor=none;fillColor=none;" vertex="1" parent="skHqQRAFyOAMKYW65GrV-25">
          <mxGeometry x="10" y="46" width="140" height="120" as="geometry" />
        </mxCell>
        <mxCell id="skHqQRAFyOAMKYW65GrV-39" style="edgeStyle=orthogonalEdgeStyle;rounded=0;orthogonalLoop=1;jettySize=auto;html=1;strokeColor=#003300;" edge="1" parent="1">
          <mxGeometry relative="1" as="geometry">
            <mxPoint x="1040" y="450" as="targetPoint" />
            <mxPoint x="880" y="210" as="sourcePoint" />
            <Array as="points">
              <mxPoint x="1000" y="210" />
              <mxPoint x="1000" y="450" />
            </Array>
          </mxGeometry>
        </mxCell>
        <mxCell id="skHqQRAFyOAMKYW65GrV-40" style="edgeStyle=orthogonalEdgeStyle;rounded=0;orthogonalLoop=1;jettySize=auto;html=1;strokeColor=#003300;" edge="1" parent="1">
          <mxGeometry relative="1" as="geometry">
            <mxPoint x="1040" y="653.14" as="targetPoint" />
            <mxPoint x="890" y="210" as="sourcePoint" />
            <Array as="points">
              <mxPoint x="880" y="210" />
              <mxPoint x="1000" y="210" />
              <mxPoint x="1000" y="653" />
            </Array>
          </mxGeometry>
        </mxCell>
        <mxCell id="skHqQRAFyOAMKYW65GrV-41" style="edgeStyle=orthogonalEdgeStyle;rounded=0;orthogonalLoop=1;jettySize=auto;html=1;strokeColor=#000066;" edge="1" parent="1">
          <mxGeometry relative="1" as="geometry">
            <mxPoint x="400" y="241" as="sourcePoint" />
            <mxPoint x="235" y="343" as="targetPoint" />
            <Array as="points">
              <mxPoint x="305" y="241" />
              <mxPoint x="305" y="344" />
              <mxPoint x="235" y="344" />
            </Array>
          </mxGeometry>
        </mxCell>
        <mxCell id="skHqQRAFyOAMKYW65GrV-42" style="edgeStyle=orthogonalEdgeStyle;rounded=0;orthogonalLoop=1;jettySize=auto;html=1;fontColor=#3399FF;strokeColor=#000066;" edge="1" parent="1">
          <mxGeometry relative="1" as="geometry">
            <mxPoint x="400" y="240.25" as="sourcePoint" />
            <mxPoint x="235" y="540" as="targetPoint" />
            <Array as="points">
              <mxPoint x="305" y="240" />
              <mxPoint x="305" y="540" />
              <mxPoint x="235" y="540" />
            </Array>
          </mxGeometry>
        </mxCell>
        <mxCell id="skHqQRAFyOAMKYW65GrV-46" style="edgeStyle=orthogonalEdgeStyle;rounded=0;orthogonalLoop=1;jettySize=auto;html=1;strokeColor=#000066;" edge="1" parent="1">
          <mxGeometry relative="1" as="geometry">
            <mxPoint x="840" y="770" as="targetPoint" />
            <mxPoint x="480" y="420" as="sourcePoint" />
            <Array as="points">
              <mxPoint x="480" y="600" />
              <mxPoint x="840" y="600" />
            </Array>
          </mxGeometry>
        </mxCell>
        <mxCell id="skHqQRAFyOAMKYW65GrV-49" style="edgeStyle=orthogonalEdgeStyle;rounded=0;orthogonalLoop=1;jettySize=auto;html=1;strokeColor=#000066;" edge="1" parent="1">
          <mxGeometry relative="1" as="geometry">
            <mxPoint x="1040" y="240" as="targetPoint" />
            <mxPoint x="560" y="230" as="sourcePoint" />
            <Array as="points">
              <mxPoint x="640" y="230" />
              <mxPoint x="640" y="482" />
              <mxPoint x="930" y="482" />
              <mxPoint x="930" y="240" />
              <mxPoint x="1020" y="240" />
            </Array>
          </mxGeometry>
        </mxCell>
        <mxCell id="skHqQRAFyOAMKYW65GrV-50" style="edgeStyle=orthogonalEdgeStyle;rounded=0;orthogonalLoop=1;jettySize=auto;html=1;entryX=0;entryY=0.5;entryDx=0;entryDy=0;strokeColor=#000066;" edge="1" parent="1" target="skHqQRAFyOAMKYW65GrV-21">
          <mxGeometry relative="1" as="geometry">
            <mxPoint x="990" y="650" as="targetPoint" />
            <mxPoint x="560" y="230" as="sourcePoint" />
            <Array as="points">
              <mxPoint x="640" y="230" />
              <mxPoint x="640" y="482" />
              <mxPoint x="930" y="482" />
              <mxPoint x="930" y="675" />
            </Array>
          </mxGeometry>
        </mxCell>
      </root>
    </mxGraphModel>
  </diagram>
</mxfile>
